<svg width="233" height="40" viewBox="0 0 233 40" fill="none" xmlns="http://www.w3.org/2000/svg">
<g filter="url(#filter0_i_7960_627)">
<path d="M44.8972 6.54227V39.3078H51.3463V18.5871L58.7358 32.4778H63.4831L70.8726 18.5871V39.3078H77.3217V6.54227H71.2757L61.199 25.4632L51.1671 6.54227H44.8972ZM81.8233 27.0784C81.8233 34.4622 86.7945 40 93.9153 40C98.3491 40 102.962 37.7388 104.664 33.3546L99.0656 31.5087C97.9012 33.4469 96.1994 34.5545 93.9601 34.5545C90.5564 34.5545 88.6755 31.9702 88.1828 28.7398H105.156V27.1246C105.156 19.7408 100.812 14.2491 93.6018 14.2491C86.5258 14.2491 81.8233 20.1561 81.8233 27.0784ZM93.6018 19.2332C96.6024 19.2332 98.3043 21.5406 98.7074 24.4018H88.2724C88.8098 21.5406 90.6012 19.2332 93.6018 19.2332ZM107.084 14.9413V20.1561H111.114V31.5087C111.114 36.7696 114.025 40 119.041 40C121.012 40 123.027 39.4924 124.729 38.3848L123.609 33.5392C122.534 34.0007 121.46 34.3699 120.295 34.3699C118.101 34.3699 117.384 32.7547 117.384 30.7242V20.1561H123.833V14.9413H117.384V6.63457H111.114V14.9413H107.084ZM135.548 40C138.235 40 141.101 38.8925 142.535 36.4466L142.714 39.3078H148.312V24.5402C148.312 18.1717 143.968 14.2491 138.056 14.2491C133.712 14.2491 129.009 16.6488 127.979 21.3098L133.578 22.4636C134.249 20.5253 136.041 19.5562 137.966 19.5562C140.698 19.5562 142.221 21.4944 142.221 24.2172V25.6478C140.385 24.9556 138.817 24.5864 136.847 24.5864C132.144 24.5864 127.128 26.94 127.128 32.3855C127.128 37.2311 131.249 40 135.548 40ZM133.309 32.0625C133.309 29.6166 135.951 28.9244 137.877 28.9244C138.638 28.9244 139.355 29.0167 140.116 29.1551C140.878 29.3397 141.549 29.5704 142.221 29.8473V30.0781C142.221 33.0777 139.803 35.016 137.071 35.016C135.324 35.016 133.309 34.1392 133.309 32.0625ZM153.308 4.88092V39.3078H159.086L159.265 36.1236C160.922 38.7079 163.609 40 166.565 40C173.506 40 177.806 33.5854 177.806 26.9861C177.806 20.3869 173.641 14.2491 166.923 14.2491C163.967 14.2491 161.37 15.5874 159.578 18.0333V4.88092H153.308ZM165.445 20.0638C169.252 20.0638 171.401 23.525 171.401 27.1246C171.401 30.7703 169.162 34.1853 165.445 34.1853C161.683 34.1853 159.489 30.678 159.489 27.1246C159.489 23.4788 161.728 20.0638 165.445 20.0638ZM181.911 14.9413V39.3078H188.181V25.3248C188.181 22.3251 190.107 20.0638 193.018 20.0638C196.108 20.0638 197.228 22.6943 197.228 25.5094V39.3078H203.498V24.6787C203.498 19.0024 200.676 14.2491 194.854 14.2491C191.988 14.2491 189.346 15.4951 187.868 18.0794L187.689 14.9413H181.911ZM208.503 4.88092V39.3078H214.28L214.459 36.1236C216.116 38.7079 218.803 40 221.759 40C228.701 40 233 33.5854 233 26.9861C233 20.3869 228.835 14.2491 222.117 14.2491C219.161 14.2491 216.564 15.5874 214.772 18.0333V4.88092H208.503ZM220.639 20.0638C224.446 20.0638 226.596 23.525 226.596 27.1246C226.596 30.7703 224.356 34.1853 220.639 34.1853C216.877 34.1853 214.683 30.678 214.683 27.1246C214.683 23.4788 216.922 20.0638 220.639 20.0638Z" fill="#F7F7F7"/>
<path d="M22.3926 6.50769H19.5935V7.94984H22.3926V6.50769Z" fill="#FEF9F9"/>
<path d="M24.492 9.39203H17.4943V10.8342H24.492V9.39203Z" fill="#FEF9F9"/>
<path d="M9.09699 19.4869H7.69745V20.9291H9.09699V19.4869Z" fill="#FEF9F9"/>
<path d="M11.8961 19.4869H10.4965V20.9291H11.8961V19.4869Z" fill="#FEF9F9"/>
<path d="M14.6952 19.4869H13.2957V20.9291H14.6952V19.4869Z" fill="#FEF9F9"/>
<path d="M17.4943 19.4869H16.0947V20.9291H17.4943V19.4869Z" fill="#FEF9F9"/>
<path d="M20.2933 19.4869H18.8938V20.9291H20.2933V19.4869Z" fill="#FEF9F9"/>
<path d="M23.0924 19.4869H21.6929V20.9291H23.0924V19.4869Z" fill="#FEF9F9"/>
<path d="M25.8915 19.4869H24.4919V20.9291H25.8915V19.4869Z" fill="#FEF9F9"/>
<path d="M28.6906 19.4869H27.291V20.9291H28.6906V19.4869Z" fill="#FEF9F9"/>
<path d="M31.4896 19.4869H30.0901V20.9291H31.4896V19.4869Z" fill="#FEF9F9"/>
<path d="M34.2887 19.4869H32.8892V20.9291H34.2887V19.4869Z" fill="#FEF9F9"/>
<path d="M15.3949 29.582H13.9954V31.0241H15.3949V29.582Z" fill="#FEF9F9"/>
<path d="M22.3926 24.5344V33.1873C22.3926 33.6199 22.6725 33.9084 23.0923 33.9084H32.8891C33.309 33.9084 33.5889 33.6199 33.5889 33.1873V24.5344C33.5889 24.1018 33.309 23.8134 32.8891 23.8134H23.0923C22.6725 23.8134 22.3926 24.1025 22.3926 24.5344ZM23.7921 29.5819H27.291V32.4662H23.7921V29.5819ZM28.6905 32.4662V29.5819H32.1893V32.4662H28.6905ZM32.1893 28.1398H28.6905V25.2555H32.1893V28.1398ZM27.291 25.2555V28.1398H23.7921V25.2555H27.291Z" fill="#FEF9F9"/>
<path d="M39.1871 38.2349V36.0717C39.1871 35.639 38.9072 35.3506 38.4873 35.3506H37.0878V18.0448H39.1871C39.6069 18.0448 39.8868 17.7564 39.8868 17.3238V14.6558C39.8868 14.4395 39.8169 14.2232 39.6069 14.0789L34.2887 10.0409V1.46017C34.2887 1.02753 34.0088 0.739099 33.5889 0.739099H27.9908C27.5709 0.739099 27.291 1.02753 27.291 1.46017V4.63289L21.4129 0.162241C21.133 -0.0540804 20.8531 -0.0540804 20.5732 0.162241L2.86905 13.7184H2.79908V13.7905L2.37922 14.0789C2.16929 14.2232 2.09931 14.4395 2.09931 14.6558V17.3238C2.09931 17.7564 2.37921 18.0448 2.79908 18.0448H4.89838V35.3506H3.49885C3.07898 35.3506 2.79908 35.639 2.79908 36.0717V38.2349H0V39.677H3.49885H38.4873H41.9861V38.2349H39.1871ZM32.8891 2.18124V2.90232H28.6905V2.18124H32.8891ZM28.6905 4.34446H32.8891V8.95933L28.6905 5.7145V4.34446ZM3.49885 15.1605H31.4896V13.7184H5.17829L20.9931 1.60511L38.4873 15.0171V16.6034H36.388H5.59815H3.49885V15.1605ZM6.29792 18.0448H35.6882V35.3506H18.194V25.2556H19.5935V23.8134H17.4942H9.79677H7.69746V25.2556H9.097V35.3506H6.29792V18.0448ZM10.4965 25.2556H16.7945V35.3506H10.4965V25.2556ZM4.19861 38.2349V36.7927H5.59815H9.79677H17.4942H36.388H37.7875V38.2349H4.19861Z" fill="#F7F7F7"/>
</g>
<defs>
<filter id="filter0_i_7960_627" x="0" y="0" width="237" height="44.0001" filterUnits="userSpaceOnUse" color-interpolation-filters="sRGB">
<feFlood flood-opacity="0" result="BackgroundImageFix"/>
<feBlend mode="normal" in="SourceGraphic" in2="BackgroundImageFix" result="shape"/>
<feColorMatrix in="SourceAlpha" type="matrix" values="0 0 0 0 0 0 0 0 0 0 0 0 0 0 0 0 0 0 127 0" result="hardAlpha"/>
<feOffset dx="4" dy="4"/>
<feGaussianBlur stdDeviation="22"/>
<feComposite in2="hardAlpha" operator="arithmetic" k2="-1" k3="1"/>
<feColorMatrix type="matrix" values="0 0 0 0 0.376471 0 0 0 0 0.376471 0 0 0 0 0.376471 0 0 0 0.15 0"/>
<feBlend mode="normal" in2="shape" result="effect1_innerShadow_7960_627"/>
</filter>
</defs>
</svg>
